<svg width="99" height="99" viewBox="0 0 99 99" fill="none" xmlns="http://www.w3.org/2000/svg">
<rect width="99" height="99" rx="49.5" fill="#73B298" style="fill:#73B298;fill:color(display-p3 0.4510 0.6980 0.5961);fill-opacity:1;"/>
<path d="M47.5227 75.5C44.256 75.5 41.3227 75.1 38.7227 74.3C36.1227 73.5667 33.7227 72.6333 31.5227 71.5L31.6227 59.6H32.6227L36.0227 65.6C37.4893 68.2667 39.0893 70.2667 40.8227 71.6C42.6227 72.8667 44.8893 73.5 47.6227 73.5C50.8227 73.5 53.3893 72.8 55.3227 71.4C57.3227 69.9333 58.3227 68 58.3227 65.6C58.3227 63.4 57.6227 61.6 56.2227 60.2C54.8227 58.8 52.2227 57.5333 48.4227 56.4L44.2227 55.1C40.156 53.9 36.956 52.0333 34.6227 49.5C32.2893 46.9667 31.1227 43.8667 31.1227 40.2C31.1227 35.8 32.856 32.0667 36.3227 29C39.7893 25.9333 44.756 24.4 51.2227 24.4C53.8227 24.4 56.256 24.7 58.5227 25.3C60.856 25.8333 63.0893 26.6667 65.2227 27.8L64.6227 38.6H63.6227L60.1227 32.4C58.856 30.2 57.5893 28.6667 56.3227 27.8C55.1227 26.8667 53.2893 26.4 50.8227 26.4C48.556 26.4 46.4227 27.0333 44.4227 28.3C42.4227 29.5667 41.4227 31.3667 41.4227 33.7C41.4227 35.9667 42.256 37.7667 43.9227 39.1C45.656 40.4333 48.1893 41.6667 51.5227 42.8L56.0227 44.1C60.8227 45.5667 64.256 47.6 66.3227 50.2C68.3893 52.7333 69.4227 55.8 69.4227 59.4C69.4227 64.2667 67.4893 68.1667 63.6227 71.1C59.8227 74.0333 54.456 75.5 47.5227 75.5Z" fill="white" style="fill:white;fill-opacity:1;"/>
</svg>
